{"title":"The Walking Dead S04E02 HDTV 480p x264 AAC E-Subs [GWC].mp4","uid":9078771,"size":162588702,"categoryP":"video","categoryS":"tv_shows","magnet":"?xt=urn:btih:db069f39ceeca759a12c78756d7e1e52fc7f4592&amp;dn=The+Walking+Dead+S04E02+HDTV+480p+x264+AAC+E-Subs+%5BGWC%5D.mp4&amp;tr=udp%3A%2F%2Ftracker.openbittorrent.com%3A80&amp;tr=udp%3A%2F%2Fopen.demonii.com%3A1337&amp;tr=udp%3A%2F%2Ftracker.coppersurfer.tk%3A6969&amp;tr=udp%3A%2F%2Fexodus.desync.com%3A6969","seeders":3,"leechers":0,"uploader":"canc232","files":1,"time":1382348564,"description":"The Walking Dead S04E02 HDTV 480p x264 AAC E-Subs [GWC]\n\nSCREENS :\n &lt;a href=&quot;\nhttp://s20.postimg.org/3ksg086il/The_Walking_Dead_S04_E02_HDTV_480p_x264_AAC_E_Sub.jpg&quot; rel=&quot;nofollow&quot; target=&quot;_NEW&quot;&gt;\nhttp://s20.postimg.org/3ksg086il/The_Walking_Dead_S04_E02_HDTV_480p_x264_AAC_E_Sub.jpg&lt;/a&gt; &lt;a href=&quot;\nhttp://s20.postimg.org/b21nffw1p/The_Walking_Dead_S04_E02_HDTV_480p_x264_AAC_E_Sub.jpg&quot; rel=&quot;nofollow&quot; target=&quot;_NEW&quot;&gt;\nhttp://s20.postimg.org/b21nffw1p/The_Walking_Dead_S04_E02_HDTV_480p_x264_AAC_E_Sub.jpg&lt;/a&gt; &lt;a href=&quot;\nhttp://s20.postimg.org/fp7ph7jel/The_Walking_Dead_S04_E02_HDTV_480p_x264_AAC_E_Sub.jpg&quot; rel=&quot;nofollow&quot; target=&quot;_NEW&quot;&gt;\nhttp://s20.postimg.org/fp7ph7jel/The_Walking_Dead_S04_E02_HDTV_480p_x264_AAC_E_Sub.jpg&lt;/a&gt;\n\n\n\nMEDIA INFO :\n\nGeneral \nFormat : MPEG-4 \nFormat profile : Base Media \nFile size : 155 MiB \nDuration : 43mn 17s \nOverall bit rate mode : Variable \nOverall bit rate : 501 Kbps \n\nVideo \nFormat : AVC \nFormat profile : &lt;a class=&quot;__cf_email__&quot; href=&quot;/cdn-cgi/l/email-protection&quot; data-cfemail=&quot;98d0f1fff0d8d4abb6a8&quot;&gt;[email&amp;#160;protected]&lt;/a&gt;&lt;script cf-hash='f9e31' type=&quot;text/javascript&quot;&gt;\n/* &lt;![CDATA[ */!function(){try{var t=&quot;currentScript&quot;in document?document.currentScript:function(){for(var t=document.getElementsByTagName(&quot;script&quot;),e=t.length;e--;)if(t[e].getAttribute(&quot;cf-hash&quot;))return t[e]}();if(t&amp;&amp;t.previousSibling){var e,r,n,i,c=t.previousSibling,a=c.getAttribute(&quot;data-cfemail&quot;);if(a){for(e=&quot;&quot;,r=parseInt(a.substr(0,2),16),n=2;a.length-n;n+=2)i=parseInt(a.substr(n,2),16)^r,e+=String.fromCharCode(i);e=document.createTextNode(e),c.parentNode.replaceChild(e,c)}}}catch(u){}}();/* ]]&gt; */&lt;/script&gt; \nFormat settings, CABAC : Yes \nFormat settings, ReFrames : 4 frames \nDuration : 43mn 17s \nBit rate : 438 Kbps \nWidth : 720 pixels \nHeight : 404 pixels \nDisplay aspect ratio : 16:9 \nFrame rate : 23.976 fps \nStream size : 135 MiB (87%) \nTitle : The Walking Dead S04E02 HDTV 480p x264 AAC E-Subs [GWC] \nWriting library : x264 core\n\nAudio \nFormat : AAC \nFormat profile : HE-AAC / LC \nDuration : 43mn 17s \nBit rate mode : Variable \nChannel(s) : 2 channels \nSampling rate : 48.0 KHz / 24.0 KHz \nStream size : 18.6 MiB (12%) \nLanguage : English \n\nText \nFormat : Timed Text \nCodec ID : tx3g \nDuration : 42mn 50s \nStream size : 14.1 KiB (0%) \nTitle : English Subtitle by n17t01 \nLanguage : English","torrent":{"xt":"urn:btih:db069f39ceeca759a12c78756d7e1e52fc7f4592","amp;dn":"The+Walking+Dead+S04E02+HDTV+480p+x264+AAC+E-Subs+%5BGWC%5D.mp4","amp;tr":["udp%3A%2F%2Ftracker.openbittorrent.com%3A80","udp%3A%2F%2Fopen.demonii.com%3A1337","udp%3A%2F%2Ftracker.coppersurfer.tk%3A6969","udp%3A%2F%2Fexodus.desync.com%3A6969"],"infoHash":"db069f39ceeca759a12c78756d7e1e52fc7f4592","infoHashBuffer":{"type":"Buffer","data":[219,6,159,57,206,236,167,89,161,44,120,117,109,126,30,82,252,127,69,146]},"announce":[],"urlList":[]}}